<svg width="195" height="47" viewBox="0 0 195 47" fill="none" xmlns="http://www.w3.org/2000/svg">
<path d="M19.1045 8.7074C13.3335 8.7074 9.58335 11.0194 7.30776 15.4068H7.18033V12.676C7.18033 10.7099 5.57831 9.12611 3.61219 9.12611C1.64607 9.12611 0.0622559 10.7099 0.0622559 12.676V42.8778C0.0622559 44.8439 1.64607 46.4459 3.61219 46.4459H3.95808C5.92419 46.4459 7.52621 44.8439 7.52621 42.8778V24.8914C7.52621 19.0113 10.8941 15.0973 16.5194 15.0973C21.9808 15.0973 24.6023 18.2649 24.6023 23.9266V42.8778C24.6023 44.8439 26.1861 46.4459 28.1522 46.4459H28.4981C30.4642 46.4459 32.0481 44.8439 32.0481 42.8778V22.5248C32.0481 13.9322 27.3512 8.7074 19.1045 8.7074Z" fill="white"/>
<path d="M55.0771 8.63452C44.6457 8.63452 37.8372 16.2441 37.8372 27.9134C37.8372 39.6009 44.5729 46.8828 55.3866 46.8828C62.0859 46.8828 67.6202 43.9154 70.1142 39.2914C71.0427 37.5983 69.7683 35.5048 67.8386 35.5048H65.9453C64.9987 35.5048 64.1795 36.0509 63.6879 36.8701C62.2498 39.346 59.2278 40.8388 55.5322 40.8388C49.4154 40.8388 45.3557 36.5789 45.3557 30.1162V29.6792H69.204C70.624 29.6792 71.7891 28.5141 71.7891 27.0942V27.0578C71.7891 15.7526 65.3264 8.63452 55.0771 8.63452ZM45.3921 24.3817C45.8108 18.6472 49.6885 14.7149 55.0589 14.7149C60.4839 14.7149 64.1613 18.5743 64.3251 24.3817H45.3921Z" fill="white"/>
<path d="M106.506 33.9028H104.521C103.447 33.9028 102.519 34.5763 102.118 35.5776C100.826 38.8727 97.8766 40.6385 93.6895 40.6385C87.7001 40.6385 83.6586 35.8143 83.6586 27.7859C83.6586 19.9397 87.6455 14.9334 93.6531 14.9334C97.9858 14.9334 100.88 17.0815 102.064 20.1399C102.464 21.1594 103.393 21.8694 104.503 21.8694H106.487C108.217 21.8694 109.509 20.1764 108.945 18.5379C107.034 12.9126 101.572 8.63452 93.5802 8.63452C83.0397 8.63452 76.0854 16.1713 76.0854 27.7859C76.0854 39.6009 83.0579 46.8828 93.6531 46.8828C101.244 46.8828 106.888 43.169 108.963 37.2888C109.546 35.6322 108.271 33.9028 106.506 33.9028Z" fill="white"/>
<path d="M128.861 40.5839C128.734 40.5657 128.588 40.5475 128.461 40.5475C126.003 40.2562 124.856 38.727 124.856 35.8507V15.0062H129.061C130.7 15.0062 132.01 13.6772 132.01 12.057C132.01 10.4368 130.7 9.12605 129.061 9.12605H124.856V4.44742C124.856 3.42795 124.437 2.49951 123.764 1.82593C123.09 1.15235 122.18 0.733643 121.142 0.733643C119.103 0.733643 117.447 2.40848 117.447 4.44742V9.12605H115.226C113.605 9.12605 112.276 10.4368 112.276 12.057C112.276 13.6772 113.605 15.0062 115.226 15.0062H117.447V36.6153C117.447 43.8244 120.323 46.6825 127.787 46.6825C127.805 46.6825 127.823 46.6825 127.823 46.6825C128.679 46.6825 129.462 46.4276 130.117 45.9725C130.135 45.9725 130.154 45.9543 130.154 45.9543C130.918 45.4082 131.428 44.5161 131.428 43.5149C131.428 42.0221 130.317 40.766 128.861 40.5839Z" fill="white"/>
<path d="M153.073 8.63452C147.248 8.63452 142.442 11.0011 139.984 14.6603C139.584 15.2793 139.383 15.9528 139.383 16.6082C139.383 18.4287 140.84 20.1217 142.897 20.1217C144.098 20.1217 145.245 19.4846 145.81 18.4287C147.011 16.1713 149.578 14.7877 152.873 14.7877C157.861 14.7877 160.701 17.1362 160.701 21.3961V21.8512C160.701 23.2165 159.645 24.3452 158.28 24.4181L150.634 24.855C141.422 25.4375 136.38 29.2241 136.38 35.7596C136.38 42.4226 141.532 46.8099 148.996 46.8099C154.075 46.8099 158.717 44.2795 160.774 40.2198H160.938V42.8777C160.938 43.8608 161.338 44.7528 161.976 45.4082C162.631 46.0453 163.523 46.4459 164.506 46.4459C166.472 46.4459 168.056 44.8438 168.056 42.8777V20.8499C168.056 13.4588 162.176 8.63452 153.073 8.63452ZM160.701 32.4282C160.701 37.3253 156.514 40.8752 150.98 40.8752C146.684 40.8752 143.898 38.818 143.898 35.614C143.898 32.3189 146.556 30.4256 151.635 30.1162L160.701 29.4972V32.4282Z" fill="white"/>
<path d="M191.813 8.74377C187.408 8.74377 183.985 11.256 182.802 15.4067H182.674V12.676C182.674 10.7099 181.072 9.12607 179.125 9.12607C177.158 9.12607 175.556 10.7099 175.556 12.676V42.7139C175.556 43.7334 175.975 44.68 176.649 45.3536C177.322 46.0272 178.251 46.4459 179.288 46.4459C181.346 46.4459 183.02 44.771 183.02 42.7139V24.1814C183.02 18.9202 186.115 15.516 191.03 15.516C191.231 15.516 191.449 15.516 191.649 15.5342C193.179 15.5888 194.417 14.3326 194.417 12.8034V11.3653C194.417 9.92709 193.251 8.74377 191.813 8.74377Z" fill="white"/>
</svg>
